<?xml version="1.0" standalone="no"?>
<!DOCTYPE svg PUBLIC "-//W3C//DTD SVG 20010904//EN"
 "http://www.w3.org/TR/2001/REC-SVG-20010904/DTD/svg10.dtd">
<svg version="1.0" xmlns="http://www.w3.org/2000/svg"
 width="512.000000pt" height="512.000000pt" viewBox="0 0 512.000000 512.000000"
 preserveAspectRatio="xMidYMid meet">
<metadata>
Created by potrace 1.11, written by Peter Selinger 2001-2013
</metadata>
<g transform="translate(0.000000,512.000000) scale(0.100000,-0.100000)"
fill="#000000" stroke="none">
<path d="M2235 5098 c-2 -7 -11 -60 -20 -118 -51 -347 -78 -485 -96 -501 -10
-10 -51 -27 -91 -38 -129 -39 -260 -92 -387 -158 -69 -35 -130 -62 -136 -61
-6 2 -95 64 -198 138 -103 74 -218 156 -255 182 l-67 47 -224 -223 -223 -224
88 -129 c49 -70 130 -186 181 -258 51 -71 93 -136 93 -143 0 -7 -22 -53 -49
-102 -27 -49 -68 -136 -91 -192 -41 -98 -56 -142 -95 -270 l-17 -57 -92 -16
c-50 -9 -192 -33 -316 -54 l-225 -37 -3 -320 -2 -319 187 -33 c386 -67 418
-73 431 -77 14 -5 34 -49 57 -125 40 -137 151 -393 200 -463 27 -38 44 -10
-229 -386 -50 -69 -99 -138 -108 -152 l-17 -26 213 -213 c118 -117 219 -216
227 -220 14 -9 60 21 346 222 100 70 186 128 191 128 5 0 46 -21 93 -46 120
-65 244 -117 396 -166 l132 -43 16 -90 c9 -49 33 -191 54 -315 l37 -225 322
-3 322 -2 0 23 c0 12 11 83 25 157 14 74 32 173 41 220 30 166 43 223 51 231
4 4 46 20 93 34 143 46 310 114 418 172 56 30 108 53 115 50 7 -3 84 -55 172
-117 255 -180 346 -242 350 -238 3 1 103 101 224 222 l220 218 -17 27 c-9 14
-92 130 -184 258 -93 128 -168 237 -168 242 0 5 18 40 40 78 53 93 130 273
174 413 21 63 43 120 49 127 7 6 64 20 127 31 63 11 202 35 308 53 l192 34 -2
320 -3 320 -45 6 c-221 34 -581 96 -585 101 -1 2 -12 37 -24 78 -49 163 -124
342 -198 473 -18 33 -33 63 -33 68 0 9 93 148 170 254 20 28 72 101 114 163
l78 114 -222 223 -223 223 -33 -21 c-18 -12 -134 -95 -258 -184 -123 -90 -229
-163 -236 -163 -7 0 -47 19 -89 43 -125 70 -286 136 -473 192 -33 10 -59 24
-62 34 -5 16 -30 150 -81 437 -14 78 -25 151 -25 163 0 21 -1 21 -320 21 -248
0 -322 -3 -325 -12z m519 -1173 c407 -54 774 -298 990 -659 110 -182 167 -353
187 -555 38 -389 -70 -749 -310 -1031 -205 -242 -436 -386 -746 -466 -104 -27
-122 -28 -315 -28 -179 0 -217 3 -300 23 -338 83 -598 255 -810 536 -119 158
-209 359 -246 552 -22 109 -24 393 -5 503 46 262 185 526 383 728 198 203 494
357 753 392 50 6 97 13 105 15 43 8 218 3 314 -10z"/>
<path d="M2345 3516 c-215 -63 -320 -122 -461 -261 -128 -127 -200 -239 -252
-390 -38 -111 -45 -177 -40 -348 6 -185 22 -246 110 -415 43 -84 145 -221 195
-262 127 -105 221 -159 373 -216 70 -26 87 -28 261 -32 146 -3 199 0 247 12
224 57 423 188 563 371 59 77 110 171 151 282 l33 88 0 215 0 215 -33 85
c-125 325 -326 524 -638 631 -84 29 -100 31 -274 35 -142 3 -196 1 -235 -10z
m318 -481 c93 -19 175 -66 245 -139 74 -77 116 -159 133 -258 54 -320 -227
-607 -547 -561 -324 47 -513 395 -374 691 61 130 194 234 345 267 79 18 116
18 198 0z"/>
</g>
</svg>
