<?xml version="1.0" standalone="no"?>
<!DOCTYPE svg PUBLIC "-//W3C//DTD SVG 20010904//EN"
 "http://www.w3.org/TR/2001/REC-SVG-20010904/DTD/svg10.dtd">
<svg version="1.0" xmlns="http://www.w3.org/2000/svg"
 width="512.000000pt" height="512.000000pt" viewBox="0 0 512.000000 512.000000"
 preserveAspectRatio="xMidYMid meet">
<metadata>
Created by potrace 1.11, written by Peter Selinger 2001-2013
</metadata>
<g transform="translate(0.000000,512.000000) scale(0.100000,-0.100000)"
fill="#000000" stroke="none">
<path d="M3467 5085 c-640 -92 -1136 -601 -1217 -1249 -16 -121 -8 -341 15
-451 125 -599 587 -1044 1185 -1141 124 -20 342 -20 467 1 547 92 1008 513
1147 1046 40 155 49 246 43 428 -4 132 -11 187 -31 270 -15 57 -29 108 -32
113 -4 6 -164 -147 -358 -340 -325 -324 -355 -351 -405 -367 -65 -21 -141 -16
-197 13 -56 29 -659 637 -679 684 -8 21 -15 66 -15 101 0 113 12 128 392 499
l339 333 -29 12 c-123 50 -441 75 -625 48z"/>
<path d="M1174 1978 c-608 -610 -976 -985 -1001 -1023 -166 -249 -206 -513
-108 -712 77 -155 218 -233 421 -233 168 0 299 45 479 163 39 26 395 374 1018
996 526 526 957 959 957 963 0 4 -28 22 -62 39 -279 140 -548 410 -698 702
-19 37 -37 67 -40 67 -3 0 -438 -433 -966 -962z"/>
</g>
</svg>
